<svg width="20" height="20" viewBox="0 0 20 20" fill="none" xmlns="http://www.w3.org/2000/svg">
<path d="M10.0125 0.25C10.7465 0.25846 11.4776 0.343262 12.194 0.503038C12.5067 0.572785 12.7406 0.833511 12.7761 1.15196L12.9463 2.67881C13.0234 3.37986 13.6153 3.91084 14.3209 3.91158C14.5106 3.91188 14.6982 3.87238 14.8735 3.79483L16.2741 3.17956C16.5654 3.05159 16.9058 3.12136 17.1232 3.35362C18.1354 4.43464 18.8892 5.73115 19.328 7.14558C19.4226 7.45058 19.3137 7.78203 19.0567 7.9715L17.8152 8.88659C17.461 9.14679 17.2519 9.56001 17.2519 9.99946C17.2519 10.4389 17.461 10.8521 17.816 11.1129L19.0585 12.0283C19.3157 12.2177 19.4246 12.5492 19.33 12.8543C18.8914 14.2685 18.138 15.5649 17.1264 16.6461C16.9092 16.8783 16.5691 16.9483 16.2778 16.8206L14.8715 16.2045C14.4691 16.0284 14.0071 16.0542 13.6268 16.274C13.2466 16.4937 12.9936 16.8812 12.9453 17.3177L12.7762 18.8444C12.7413 19.1592 12.5125 19.4182 12.2043 19.4915C10.7559 19.8361 9.24679 19.8361 7.79834 19.4915C7.49021 19.4182 7.26135 19.1592 7.22649 18.8444L7.05767 17.32C7.00808 16.8843 6.75465 16.498 6.37473 16.279C5.99481 16.06 5.53351 16.0343 5.13251 16.2094L3.72588 16.8256C3.43453 16.9533 3.09434 16.8833 2.87709 16.6509C1.86493 15.5685 1.1115 14.2705 0.673506 12.8548C0.579167 12.5499 0.688167 12.2186 0.945151 12.0293L2.18848 11.1133C2.54262 10.8531 2.75178 10.4399 2.75178 10.0005C2.75178 9.56101 2.54262 9.14779 2.18802 8.88725L0.945467 7.97285C0.688101 7.78345 0.579001 7.45178 0.673673 7.14658C1.11242 5.73215 1.86625 4.43564 2.87843 3.35462C3.0959 3.12236 3.43624 3.05259 3.72755 3.18056L5.12793 3.79572C5.53087 3.97256 5.99411 3.94585 6.37608 3.72269C6.7564 3.50209 7.00959 3.11422 7.05847 2.67764L7.22855 1.15196C7.26407 0.83335 7.49817 0.572541 7.81111 0.502942C8.52838 0.34342 9.26026 0.258654 10.0125 0.25ZM10.0127 1.7499C9.55863 1.75524 9.10586 1.79443 8.65813 1.86702L8.5492 2.84418C8.44737 3.75368 7.92034 4.56102 7.13072 5.01903C6.33628 5.48317 5.36767 5.53903 4.52489 5.16917L3.6266 4.77456C3.05467 5.46873 2.59945 6.25135 2.27883 7.09168L3.07662 7.67879C3.81543 8.22162 4.25178 9.08367 4.25178 10.0005C4.25178 10.9172 3.81543 11.7793 3.0774 12.3215L2.27835 12.9102C2.59869 13.752 3.05398 14.5361 3.62631 15.2316L4.53144 14.8351C5.36953 14.4692 6.33155 14.5227 7.12383 14.9794C7.91612 15.4361 8.44463 16.2417 8.5483 17.1526L8.65726 18.1365C9.5469 18.2878 10.4558 18.2878 11.3454 18.1365L11.4544 17.1527C11.5552 16.2421 12.0831 15.4337 12.8763 14.9753C13.6695 14.5168 14.6335 14.463 15.4731 14.8305L16.3775 15.2267C16.9493 14.5323 17.4044 13.7495 17.725 12.909L16.927 12.3211C16.1882 11.7783 15.7519 10.9162 15.7519 9.99946C15.7519 9.08267 16.1882 8.22062 16.9261 7.67847L17.723 7.09109C17.4024 6.25061 16.9471 5.46784 16.3751 4.77356L15.4786 5.16737C15.1133 5.32901 14.7181 5.4122 14.319 5.41158C12.8493 5.41004 11.6158 4.30355 11.4554 2.84383L11.3465 1.8667C10.901 1.7942 10.4529 1.75512 10.0127 1.7499ZM10 6.24995C12.0711 6.24995 13.75 7.92888 13.75 9.99995C13.75 12.071 12.0711 13.75 10 13.75C7.92893 13.75 6.25 12.071 6.25 9.99995C6.25 7.92888 7.92893 6.24995 10 6.24995ZM10 7.74995C8.75736 7.74995 7.75 8.75731 7.75 9.99995C7.75 11.2426 8.75736 12.25 10 12.25C11.2426 12.25 12.25 11.2426 12.25 9.99995C12.25 8.75731 11.2426 7.74995 10 7.74995Z" fill="#999999"/>
</svg>
