<svg width="60" height="60" viewBox="0 0 60 60" fill="none" xmlns="http://www.w3.org/2000/svg">
<path d="M35.3897 56.4621C32.1424 53.3487 27.5529 53.2552 24.2653 56.2328C21.9945 58.2898 19.4238 59.4497 16.701 59.4497C7.47734 59.4497 0 46.1412 0 29.7248C0 13.308 7.47734 0 16.701 0C19.5626 0 22.256 1.2809 24.6103 3.5381C27.8576 6.65152 32.4471 6.74483 35.7345 3.76709C38.0055 1.71012 40.5762 0.550469 43.2989 0.550469C52.5227 0.550469 60 13.8588 60 30.2752C60 46.692 52.5227 60 43.2989 60C40.4374 60 37.744 58.7193 35.3897 56.4621Z" fill="url(#paint0_linear_2_1382)"/>
<defs>
<linearGradient id="paint0_linear_2_1382" x1="30" y1="0" x2="30" y2="60" gradientUnits="userSpaceOnUse">
<stop stop-color="#33FFBB"/>
<stop offset="1" stop-color="#00FF55"/>
</linearGradient>
</defs>
</svg>
