<svg width="60" height="60" viewBox="0 0 60 60" fill="none" xmlns="http://www.w3.org/2000/svg">
<path d="M30 0C30 0 15.5844 6.45407 15.5844 14.4156C15.5844 15.0611 15.0611 15.5844 14.4156 15.5844C6.45407 15.5844 0 30 0 30C0 30 6.45407 44.4157 14.4156 44.4157C15.0611 44.4157 15.5844 44.9389 15.5844 45.5843C15.5844 53.5459 30 60 30 60C30 60 44.4157 53.5459 44.4157 45.5843C44.4157 44.9389 44.9389 44.4157 45.5843 44.4157C53.5459 44.4157 60 30 60 30C60 30 53.5459 15.5844 45.5843 15.5844C44.9389 15.5844 44.4157 15.0611 44.4157 14.4156C44.4157 6.45407 30 0 30 0Z" fill="url(#paint0_linear_2_1397)"/>
<defs>
<linearGradient id="paint0_linear_2_1397" x1="30" y1="0" x2="30" y2="60" gradientUnits="userSpaceOnUse">
<stop stop-color="#FF5533"/>
<stop offset="1" stop-color="#FF0000"/>
</linearGradient>
</defs>
</svg>
