<svg width="25" height="24" viewBox="0 0 25 24" fill="none" xmlns="http://www.w3.org/2000/svg">
<path d="M3.5 3.75C3.5 3.33579 3.83579 3 4.25 3C4.66421 3 5 3.33579 5 3.75V10.0077L8.65072 8.08631C8.8805 7.96538 9.15648 7.9719 9.38029 8.10355L13.1997 10.3503L18.8 6.15C19.0273 5.97955 19.3314 5.95214 19.5854 6.07918C19.8395 6.20622 20 6.46592 20 6.75V19.5H20.75C21.1642 19.5 21.5 19.8358 21.5 20.25C21.5 20.6642 21.1642 21 20.75 21H4.25C3.83579 21 3.5 20.6642 3.5 20.25V11.2641C3.49984 11.2551 3.49984 11.2461 3.5 11.2371V3.75ZM5 11.7028V19.5H18.5V8.25L13.7 11.85C13.458 12.0315 13.1306 12.0499 12.8698 11.8965L8.97975 9.60821L5 11.7028Z" fill="#999999"/>
</svg>
