<svg width="42" height="48" viewBox="0 0 42 48" fill="none" xmlns="http://www.w3.org/2000/svg">
<g clip-path="url(#clip0_8_544)">
<path d="M41.1197 37.4066C40.3657 39.0836 39.4731 40.6272 38.439 42.0464C37.0293 43.9812 35.8751 45.3204 34.9856 46.0641C33.6068 47.2848 32.1294 47.91 30.5474 47.9455C29.4117 47.9455 28.0421 47.6344 26.4478 47.0033C24.8482 46.3752 23.3782 46.0641 22.0342 46.0641C20.6245 46.0641 19.1127 46.3752 17.4956 47.0033C15.876 47.6344 14.5713 47.9633 13.5738 47.9959C12.0568 48.0581 10.5446 47.4152 9.03526 46.0641C8.07191 45.2552 6.86694 43.8686 5.42344 41.9042C3.87467 39.8065 2.60138 37.374 1.60385 34.6007C0.535542 31.6053 0 28.7046 0 25.8964C0 22.6796 0.722058 19.9052 2.16833 17.5802C3.30497 15.7127 4.8171 14.2396 6.70966 13.1581C8.60221 12.0767 10.6471 11.5256 12.8493 11.4903C14.0543 11.4903 15.6344 11.8491 17.5981 12.5543C19.5562 13.2618 20.8135 13.6206 21.3647 13.6206C21.7768 13.6206 23.1736 13.2011 25.5413 12.3647C27.7805 11.589 29.6702 11.2678 31.2184 11.3943C35.4135 11.7202 38.5652 13.3122 40.6611 16.1803C36.9093 18.3686 35.0534 21.4337 35.0903 25.3658C35.1241 28.4285 36.2783 30.9771 38.5467 33.0008C39.5747 33.94 40.7227 34.6659 42 35.1815C41.723 35.9548 41.4306 36.6955 41.1197 37.4066ZM31.4985 0.960274C31.4985 3.36082 30.5874 5.60221 28.7715 7.67681C26.5801 10.1431 23.9295 11.5682 21.0551 11.3434C21.0185 11.0554 20.9972 10.7523 20.9972 10.4338C20.9972 8.12924 22.0394 5.66294 23.8901 3.64641C24.814 2.62541 25.9892 1.77646 27.4142 1.09923C28.8361 0.43211 30.1812 0.0631781 31.4461 0C31.4831 0.320916 31.4985 0.641883 31.4985 0.960274Z" fill="#B3B3B3"/>
</g>
<defs>
<clipPath id="clip0_8_544">
<rect width="42" height="48" fill="white"/>
</clipPath>
</defs>
</svg>
